# xmcd
# 
# Track frame offsets:
#     150
#     17408
#     30636
#     56532
#     72216
#     86283
#     103548
#     123481
#     128112
#     146360
#     165479
#     179491
# 
# Disc length: 2560
# 
# Revision: 2
# Processed by: cddbd v1.5.2PL0 Copyright (c) Steve Scherf et al.
# Submitted via: fre:ac v1.0.17
# 
DISCID=9409fe0c
DTITLE=Charles Pasi - Uncaged
DYEAR=2010
DGENRE=Blues
TTITLE0=Up To Us
TTITLE1=Better With Butter (Feat. Archie Shepp)
TTITLE2=Farewell My Love (Feat. Archie Shepp)
TTITLE3=Old Lady Paris
TTITLE4=Lost Generation
TTITLE5=Things Have Changed
TTITLE6=While You're Dancing
TTITLE7=So Long Sonny
TTITLE8=Remember The Day
TTITLE9=Wild It Up
TTITLE10=Une Berceuse
TTITLE11=Dream A Little Dream Of Me
EXTD=
EXTT0=
EXTT1=
EXTT2=
EXTT3=
EXTT4=
EXTT5=
EXTT6=
EXTT7=
EXTT8=
EXTT9=
EXTT10=
EXTT11=
PLAYORDER=
